<svg xmlns="http://www.w3.org/2000/svg" viewBox="0 0 680 330" font-family="Helvetica, Arial, sans-serif">
<rect x="58" y="44" width="598" height="234" fill="#F3F3F3"/>
<line x1="75.6" y1="44" x2="75.6" y2="278" stroke="#C9CDCF" stroke-width="1" stroke-dasharray="3 3"/>
<line x1="145.9" y1="44" x2="145.9" y2="278" stroke="#C9CDCF" stroke-width="1" stroke-dasharray="3 3"/>
<line x1="216.3" y1="44" x2="216.3" y2="278" stroke="#C9CDCF" stroke-width="1" stroke-dasharray="3 3"/>
<line x1="357.0" y1="44" x2="357.0" y2="278" stroke="#C9CDCF" stroke-width="1" stroke-dasharray="3 3"/>
<line x1="497.7" y1="44" x2="497.7" y2="278" stroke="#C9CDCF" stroke-width="1" stroke-dasharray="3 3"/>
<line x1="638.4" y1="44" x2="638.4" y2="278" stroke="#C9CDCF" stroke-width="1" stroke-dasharray="3 3"/>
<line x1="58" y1="278.0" x2="656" y2="278.0" stroke="#C9CDCF" stroke-width="1" stroke-dasharray="3 3"/>
<line x1="58" y1="233.0" x2="656" y2="233.0" stroke="#C9CDCF" stroke-width="1" stroke-dasharray="3 3"/>
<line x1="58" y1="188.0" x2="656" y2="188.0" stroke="#C9CDCF" stroke-width="1" stroke-dasharray="3 3"/>
<line x1="58" y1="143.0" x2="656" y2="143.0" stroke="#C9CDCF" stroke-width="1" stroke-dasharray="3 3"/>
<line x1="58" y1="98.0" x2="656" y2="98.0" stroke="#C9CDCF" stroke-width="1" stroke-dasharray="3 3"/>
<line x1="58" y1="53.0" x2="656" y2="53.0" stroke="#C9CDCF" stroke-width="1" stroke-dasharray="3 3"/>
<rect x="58" y="44" width="598" height="234" fill="none" stroke="#394144" stroke-width="1"/>
<line x1="75.6" y1="278" x2="75.6" y2="282" stroke="#394144" stroke-width="1"/>
<text x="75.6" y="296" font-size="12" fill="#394144" text-anchor="middle">0</text>
<line x1="145.9" y1="278" x2="145.9" y2="282" stroke="#394144" stroke-width="1"/>
<text x="145.9" y="296" font-size="12" fill="#394144" text-anchor="middle">4</text>
<line x1="216.3" y1="278" x2="216.3" y2="282" stroke="#394144" stroke-width="1"/>
<text x="216.3" y="296" font-size="12" fill="#394144" text-anchor="middle">8</text>
<line x1="357.0" y1="278" x2="357.0" y2="282" stroke="#394144" stroke-width="1"/>
<text x="357.0" y="296" font-size="12" fill="#394144" text-anchor="middle">16</text>
<line x1="497.7" y1="278" x2="497.7" y2="282" stroke="#394144" stroke-width="1"/>
<text x="497.7" y="296" font-size="12" fill="#394144" text-anchor="middle">24</text>
<line x1="638.4" y1="278" x2="638.4" y2="282" stroke="#394144" stroke-width="1"/>
<text x="638.4" y="296" font-size="12" fill="#394144" text-anchor="middle">32</text>
<line x1="54" y1="278.0" x2="58" y2="278.0" stroke="#394144" stroke-width="1"/>
<text x="50" y="282.0" font-size="12" fill="#394144" text-anchor="end">60</text>
<line x1="54" y1="233.0" x2="58" y2="233.0" stroke="#394144" stroke-width="1"/>
<text x="50" y="237.0" font-size="12" fill="#394144" text-anchor="end">65</text>
<line x1="54" y1="188.0" x2="58" y2="188.0" stroke="#394144" stroke-width="1"/>
<text x="50" y="192.0" font-size="12" fill="#394144" text-anchor="end">70</text>
<line x1="54" y1="143.0" x2="58" y2="143.0" stroke="#394144" stroke-width="1"/>
<text x="50" y="147.0" font-size="12" fill="#394144" text-anchor="end">75</text>
<line x1="54" y1="98.0" x2="58" y2="98.0" stroke="#394144" stroke-width="1"/>
<text x="50" y="102.0" font-size="12" fill="#394144" text-anchor="end">80</text>
<line x1="54" y1="53.0" x2="58" y2="53.0" stroke="#394144" stroke-width="1"/>
<text x="50" y="57.0" font-size="12" fill="#394144" text-anchor="end">85</text>
<text x="357.0" y="320" font-size="13" fill="#394144" text-anchor="middle">Number of Edges</text>
<text transform="translate(16,161.0) rotate(-90)" font-size="13" fill="#394144" text-anchor="middle">Accuracy (%)</text>
<defs><linearGradient id="gF00000" x1="0" y1="0" x2="0" y2="1"><stop offset="0%" stop-color="#F00000"/><stop offset="100%" stop-color="#FF7575"/></linearGradient></defs><polyline points="75.6,254.6 145.9,180.8 216.3,170.9 357.0,184.4 497.7,204.2 638.4,214.1" fill="none" stroke="url(#gF00000)" stroke-width="2.2" stroke-linejoin="round" stroke-linecap="round"/><circle cx="75.6" cy="254.6" r="3.4" fill="#ffffff" stroke="#F00000" stroke-width="1.6"/><circle cx="145.9" cy="180.8" r="3.4" fill="#ffffff" stroke="#F00000" stroke-width="1.6"/><circle cx="216.3" cy="170.9" r="3.4" fill="#ffffff" stroke="#F00000" stroke-width="1.6"/><circle cx="357.0" cy="184.4" r="3.4" fill="#ffffff" stroke="#F00000" stroke-width="1.6"/><circle cx="497.7" cy="204.2" r="3.4" fill="#ffffff" stroke="#F00000" stroke-width="1.6"/><circle cx="638.4" cy="214.1" r="3.4" fill="#ffffff" stroke="#F00000" stroke-width="1.6"/>
<defs><linearGradient id="g4D4DFF" x1="0" y1="0" x2="0" y2="1"><stop offset="0%" stop-color="#4D4DFF"/><stop offset="100%" stop-color="#8F8FFF"/></linearGradient></defs><polyline points="75.6,166.4 145.9,105.2 216.3,93.5 357.0,109.7 497.7,139.4 638.4,143.9" fill="none" stroke="url(#g4D4DFF)" stroke-width="2.2" stroke-linejoin="round" stroke-linecap="round"/><circle cx="75.6" cy="166.4" r="3.4" fill="#ffffff" stroke="#4D4DFF" stroke-width="1.6"/><circle cx="145.9" cy="105.2" r="3.4" fill="#ffffff" stroke="#4D4DFF" stroke-width="1.6"/><circle cx="216.3" cy="93.5" r="3.4" fill="#ffffff" stroke="#4D4DFF" stroke-width="1.6"/><circle cx="357.0" cy="109.7" r="3.4" fill="#ffffff" stroke="#4D4DFF" stroke-width="1.6"/><circle cx="497.7" cy="139.4" r="3.4" fill="#ffffff" stroke="#4D4DFF" stroke-width="1.6"/><circle cx="638.4" cy="143.9" r="3.4" fill="#ffffff" stroke="#4D4DFF" stroke-width="1.6"/>
<defs><linearGradient id="gFBA418" x1="0" y1="0" x2="0" y2="1"><stop offset="0%" stop-color="#FBA418"/><stop offset="100%" stop-color="#FDCC7B"/></linearGradient></defs><polyline points="75.6,149.3 145.9,79.1 216.3,65.6 357.0,71.9 497.7,99.8 638.4,111.5" fill="none" stroke="url(#gFBA418)" stroke-width="2.2" stroke-linejoin="round" stroke-linecap="round"/><circle cx="75.6" cy="149.3" r="3.4" fill="#ffffff" stroke="#FBA418" stroke-width="1.6"/><circle cx="145.9" cy="79.1" r="3.4" fill="#ffffff" stroke="#FBA418" stroke-width="1.6"/><circle cx="216.3" cy="65.6" r="3.4" fill="#ffffff" stroke="#FBA418" stroke-width="1.6"/><circle cx="357.0" cy="71.9" r="3.4" fill="#ffffff" stroke="#FBA418" stroke-width="1.6"/><circle cx="497.7" cy="99.8" r="3.4" fill="#ffffff" stroke="#FBA418" stroke-width="1.6"/><circle cx="638.4" cy="111.5" r="3.4" fill="#ffffff" stroke="#FBA418" stroke-width="1.6"/>
<defs><linearGradient id="lgF00000" x1="0" y1="0" x2="1" y2="0"><stop offset="0%" stop-color="#F00000"/><stop offset="100%" stop-color="#FF7575"/></linearGradient></defs><line x1="119.80000000000001" y1="22" x2="145.8" y2="22" stroke="url(#lgF00000)" stroke-width="2.2"/><circle cx="132.8" cy="22" r="3.4" fill="#ffffff" stroke="#F00000" stroke-width="1.6"/><text x="153.8" y="26" font-size="12.5" fill="#394144">Gemma-3</text>
<defs><linearGradient id="lg4D4DFF" x1="0" y1="0" x2="1" y2="0"><stop offset="0%" stop-color="#4D4DFF"/><stop offset="100%" stop-color="#8F8FFF"/></linearGradient></defs><line x1="262.20000000000005" y1="22" x2="288.20000000000005" y2="22" stroke="url(#lg4D4DFF)" stroke-width="2.2"/><circle cx="275.20000000000005" cy="22" r="3.4" fill="#ffffff" stroke="#4D4DFF" stroke-width="1.6"/><text x="296.20000000000005" y="26" font-size="12.5" fill="#394144">Qwen-2.5-VL</text>
<defs><linearGradient id="lgFBA418" x1="0" y1="0" x2="1" y2="0"><stop offset="0%" stop-color="#FBA418"/><stop offset="100%" stop-color="#FDCC7B"/></linearGradient></defs><line x1="433.40000000000003" y1="22" x2="459.40000000000003" y2="22" stroke="url(#lgFBA418)" stroke-width="2.2"/><circle cx="446.40000000000003" cy="22" r="3.4" fill="#ffffff" stroke="#FBA418" stroke-width="1.6"/><text x="467.40000000000003" y="26" font-size="12.5" fill="#394144">LlamaV-o1</text>
</svg>