<svg xmlns="http://www.w3.org/2000/svg" viewBox="0 0 700 330" font-family="Helvetica, Arial, sans-serif">
<rect x="58" y="46" width="618" height="232" fill="#F3F3F3"/>
<line x1="58" y1="278.0" x2="676" y2="278.0" stroke="#C9CDCF" stroke-width="1" stroke-dasharray="3 3"/>
<line x1="54" y1="278.0" x2="58" y2="278.0" stroke="#394144" stroke-width="1"/>
<text x="50" y="282.0" font-size="12" fill="#394144" text-anchor="end">40</text>
<line x1="58" y1="218.5" x2="676" y2="218.5" stroke="#C9CDCF" stroke-width="1" stroke-dasharray="3 3"/>
<line x1="54" y1="218.5" x2="58" y2="218.5" stroke="#394144" stroke-width="1"/>
<text x="50" y="222.5" font-size="12" fill="#394144" text-anchor="end">50</text>
<line x1="58" y1="159.0" x2="676" y2="159.0" stroke="#C9CDCF" stroke-width="1" stroke-dasharray="3 3"/>
<line x1="54" y1="159.0" x2="58" y2="159.0" stroke="#394144" stroke-width="1"/>
<text x="50" y="163.0" font-size="12" fill="#394144" text-anchor="end">60</text>
<line x1="58" y1="99.5" x2="676" y2="99.5" stroke="#C9CDCF" stroke-width="1" stroke-dasharray="3 3"/>
<line x1="54" y1="99.5" x2="58" y2="99.5" stroke="#394144" stroke-width="1"/>
<text x="50" y="103.5" font-size="12" fill="#394144" text-anchor="end">70</text>
<rect x="58" y="46" width="618" height="232" fill="none" stroke="#394144" stroke-width="1"/>
<text x="135.2" y="298" font-size="13" fill="#394144" text-anchor="middle">GQA</text>
<text x="289.8" y="298" font-size="13" fill="#394144" text-anchor="middle">VQAv1</text>
<text x="444.2" y="298" font-size="13" fill="#394144" text-anchor="middle">VQAv2</text>
<text x="598.8" y="298" font-size="13" fill="#394144" text-anchor="middle">RefCOCOg</text>
<defs><linearGradient id="barFBA418" x1="0" y1="0" x2="0" y2="1"><stop offset="0%" stop-color="#FDCC7B"/><stop offset="40%" stop-color="#FBA418"/><stop offset="100%" stop-color="#FBA418"/></linearGradient></defs>
<defs><linearGradient id="bar1876D2" x1="0" y1="0" x2="0" y2="1"><stop offset="0%" stop-color="#60D0E2"/><stop offset="40%" stop-color="#1876D2"/><stop offset="100%" stop-color="#1876D2"/></linearGradient></defs>
<defs><linearGradient id="bar4D4DFF" x1="0" y1="0" x2="0" y2="1"><stop offset="0%" stop-color="#8F8FFF"/><stop offset="40%" stop-color="#4D4DFF"/><stop offset="100%" stop-color="#4D4DFF"/></linearGradient></defs>
<defs><linearGradient id="barF00000" x1="0" y1="0" x2="0" y2="1"><stop offset="0%" stop-color="#FF7575"/><stop offset="40%" stop-color="#F00000"/><stop offset="100%" stop-color="#F00000"/></linearGradient></defs>
<rect x="100.2" y="181.6" width="16" height="96.4" fill="url(#barFBA418)"/>
<rect x="118.2" y="169.7" width="16" height="108.3" fill="url(#bar1876D2)"/>
<rect x="136.2" y="138.8" width="16" height="139.2" fill="url(#bar4D4DFF)"/>
<rect x="154.2" y="157.2" width="16" height="120.8" fill="url(#barF00000)"/>
<rect x="254.8" y="133.4" width="16" height="144.6" fill="url(#barFBA418)"/>
<rect x="272.8" y="128.1" width="16" height="149.9" fill="url(#bar1876D2)"/>
<rect x="290.8" y="74.6" width="16" height="203.4" fill="url(#bar4D4DFF)"/>
<rect x="308.8" y="68.6" width="16" height="209.4" fill="url(#barF00000)"/>
<rect x="409.2" y="159.6" width="16" height="118.4" fill="url(#barFBA418)"/>
<rect x="427.2" y="151.9" width="16" height="126.1" fill="url(#bar1876D2)"/>
<rect x="445.2" y="87.6" width="16" height="190.4" fill="url(#bar4D4DFF)"/>
<rect x="463.2" y="82.9" width="16" height="195.1" fill="url(#barF00000)"/>
<rect x="563.8" y="197.7" width="16" height="80.3" fill="url(#barFBA418)"/>
<rect x="581.8" y="178.7" width="16" height="99.3" fill="url(#bar1876D2)"/>
<rect x="599.8" y="176.3" width="16" height="101.7" fill="url(#bar4D4DFF)"/>
<rect x="617.8" y="169.7" width="16" height="108.3" fill="url(#barF00000)"/>
<text transform="translate(16,162.0) rotate(-90)" font-size="13" fill="#394144" text-anchor="middle">Accuracy (%)</text>
<rect x="136.6" y="20" width="16" height="11" fill="url(#barFBA418)"/>
<text x="158.6" y="29" font-size="12" fill="#394144"><tspan>I + T</tspan></text>
<rect x="239.6" y="20" width="16" height="11" fill="url(#bar1876D2)"/>
<text x="261.6" y="29" font-size="12" fill="#394144"><tspan>I + T</tspan><tspan baseline-shift="super" font-size="7.4399999999999995">SG</tspan></text>
<rect x="351.8" y="20" width="16" height="11" fill="url(#bar4D4DFF)"/>
<text x="373.8" y="29" font-size="12" fill="#394144"><tspan>I</tspan><tspan baseline-shift="super" font-size="7.4399999999999995">SG</tspan><tspan> + T</tspan></text>
<rect x="464.0" y="20" width="16" height="11" fill="url(#barF00000)"/>
<text x="486.0" y="29" font-size="12" fill="#394144"><tspan>I</tspan><tspan baseline-shift="super" font-size="7.4399999999999995">SG</tspan><tspan> + T</tspan><tspan baseline-shift="super" font-size="7.4399999999999995">SG</tspan></text>
</svg>